<?xml version="1.0" encoding="utf-8"?>
<!-- Generator: Adobe Illustrator 23.0.2, SVG Export Plug-In . SVG Version: 6.00 Build 0)  -->
<svg version="1.1" id="Layer_1" xmlns="http://www.w3.org/2000/svg" xmlns:xlink="http://www.w3.org/1999/xlink" x="0px" y="0px"
	 viewBox="0 0 226.63 96.304" enable-background="new 0 0 226.63 96.304" xml:space="preserve">
<path fill="#FFFFFF" d="M0,85.75h1.033v10.464H0V85.75z"/>
<path fill="#FFFFFF" d="M12.665,85.75h1.018v10.464H12.59l-6.482-8.862v8.862H5.075V85.75h1.093l6.497,8.862V85.75z"/>
<path fill="#FFFFFF" d="M25.329,85.75h1.018v10.464h-1.093l-6.482-8.862v8.862h-1.033V85.75h1.093l6.497,8.862V85.75z"/>
<path fill="#FFFFFF" d="M37.598,86.371c0.833,0.474,1.494,1.115,1.983,1.924c0.489,0.808,0.734,1.697,0.734,2.665
	c0,0.968-0.245,1.862-0.734,2.68c-0.489,0.818-1.15,1.467-1.983,1.946c-0.834,0.479-1.749,0.719-2.747,0.719
	c-0.998,0-1.914-0.239-2.747-0.719c-0.833-0.479-1.495-1.128-1.983-1.946c-0.489-0.818-0.734-1.712-0.734-2.68
	c0-0.968,0.245-1.856,0.734-2.665c0.489-0.808,1.15-1.449,1.983-1.924c0.833-0.474,1.749-0.711,2.747-0.711
	C35.848,85.66,36.764,85.897,37.598,86.371z M32.65,87.172c-0.679,0.389-1.218,0.918-1.617,1.587
	c-0.399,0.669-0.599,1.402-0.599,2.201c0,0.799,0.199,1.537,0.599,2.215c0.399,0.679,0.938,1.216,1.617,1.609
	c0.679,0.394,1.417,0.591,2.216,0.591c0.788,0,1.52-0.197,2.193-0.591c0.674-0.394,1.21-0.93,1.609-1.609
	c0.399-0.679,0.599-1.417,0.599-2.215c0-0.799-0.2-1.532-0.599-2.201c-0.399-0.669-0.935-1.198-1.609-1.587
	c-0.674-0.389-1.405-0.584-2.193-0.584C34.067,86.588,33.328,86.783,32.65,87.172z"/>
<path fill="#FFFFFF" d="M41.662,85.75h1.108l3.728,9.327l3.713-9.327h1.093l-4.296,10.464h-1.078L41.662,85.75z"/>
<path fill="#FFFFFF" d="M60.943,96.214l-1.242-2.784h-5.809l-1.227,2.784h-1.108l4.716-10.464h1.078l4.716,10.464H60.943z
	 M54.297,92.501h5l-2.515-5.659L54.297,92.501z"/>
<path fill="#FFFFFF" d="M62.081,85.735h7.949v0.943h-3.458v9.536h-1.033v-9.536h-3.458V85.735z"/>
<path fill="#FFFFFF" d="M72.59,85.75h1.033v10.464H72.59V85.75z"/>
<path fill="#FFFFFF" d="M76.123,85.75h1.108l3.728,9.327l3.713-9.327h1.093l-4.296,10.464H80.39L76.123,85.75z"/>
<path fill="#FFFFFF" d="M88.264,85.75h7.006v0.928h-5.973v3.742h5.344v0.928h-5.344v3.937h6.168v0.928h-7.201V85.75z"/>
<path fill="#FFFFFF" d="M103.608,85.735h1.288l4.102,7.859l4.057-7.859h1.287v10.479h-0.958l-0.015-9.042l-4.102,7.919h-0.569
	l-4.117-7.919v9.042h-0.973V85.735z"/>
<path fill="#FFFFFF" d="M126.198,96.214l-1.242-2.784h-5.809l-1.227,2.784h-1.108l4.716-10.464h1.078l4.716,10.464H126.198z
	 M119.551,92.501h5l-2.515-5.659L119.551,92.501z"/>
<path fill="#FFFFFF" d="M138.189,96.214h-1.272l-3.967-5.09l-2.126,2.305v2.784h-1.033V85.735h1.033v6.377l5.809-6.377h1.258
	l-4.207,4.581L138.189,96.214z"/>
<path fill="#FFFFFF" d="M140.929,85.75h7.006v0.928h-5.973v3.742h5.344v0.928h-5.344v3.937h6.168v0.928h-7.201V85.75z"/>
<path fill="#FFFFFF" d="M158.309,96.214l-2.261-3.413c-0.32,0.02-0.564,0.03-0.734,0.03h-2.874v3.383h-1.033V85.75h3.907
	c1.307,0,2.318,0.302,3.031,0.906c0.713,0.604,1.07,1.46,1.07,2.567c0,0.869-0.21,1.592-0.629,2.171
	c-0.419,0.579-1.018,0.983-1.796,1.213l2.515,3.608H158.309z M155.315,91.903c0.998,0,1.767-0.227,2.306-0.681
	c0.539-0.454,0.808-1.11,0.808-1.969c0-0.839-0.269-1.477-0.808-1.916c-0.539-0.439-1.308-0.658-2.306-0.658h-2.874v5.224H155.315z"
	/>
<path fill="#FFFFFF" d="M172.246,86.835c-0.509-0.145-0.988-0.217-1.437-0.217c-0.719,0-1.295,0.143-1.729,0.427
	c-0.434,0.284-0.651,0.671-0.651,1.16c0,0.429,0.12,0.778,0.359,1.048c0.24,0.269,0.534,0.482,0.883,0.636
	c0.349,0.155,0.828,0.327,1.437,0.517c0.708,0.209,1.28,0.417,1.714,0.621c0.434,0.204,0.803,0.501,1.108,0.89
	c0.305,0.389,0.457,0.904,0.457,1.542c0,0.559-0.157,1.053-0.472,1.482c-0.314,0.429-0.756,0.761-1.325,0.995
	c-0.569,0.234-1.223,0.352-1.961,0.352c-0.728,0-1.44-0.145-2.133-0.434c-0.694-0.289-1.29-0.674-1.789-1.153l0.479-0.853
	c0.469,0.459,1.013,0.819,1.632,1.078c0.619,0.26,1.227,0.389,1.826,0.389c0.798,0,1.432-0.162,1.901-0.487
	c0.469-0.324,0.704-0.761,0.704-1.31c0-0.439-0.12-0.799-0.359-1.078s-0.534-0.494-0.883-0.644c-0.35-0.15-0.839-0.324-1.467-0.524
	c-0.709-0.22-1.277-0.426-1.707-0.621c-0.429-0.194-0.793-0.484-1.093-0.868c-0.3-0.384-0.449-0.886-0.449-1.505
	c0-0.529,0.15-0.993,0.449-1.392c0.299-0.399,0.719-0.706,1.258-0.92c0.539-0.215,1.162-0.322,1.871-0.322
	c0.569,0,1.14,0.085,1.714,0.254c0.574,0.17,1.08,0.394,1.52,0.674l-0.449,0.883C173.224,87.187,172.755,86.98,172.246,86.835z"/>
<path fill="#FFFFFF" d="M176.213,85.735h7.949v0.943h-3.458v9.536h-1.033v-9.536h-3.458V85.735z"/>
<path fill="#FFFFFF" d="M188.392,94.477c0.584,0.599,1.395,0.898,2.433,0.898s1.846-0.299,2.425-0.898
	c0.579-0.599,0.868-1.437,0.868-2.515v-6.227h1.033v6.227c0,1.358-0.382,2.42-1.145,3.189c-0.763,0.769-1.824,1.153-3.181,1.153
	c-1.357,0-2.42-0.384-3.189-1.153c-0.768-0.768-1.153-1.831-1.153-3.189v-6.227h1.033v6.227
	C187.516,93.04,187.808,93.879,188.392,94.477z"/>
<path fill="#FFFFFF" d="M205.892,86.438c0.823,0.459,1.472,1.091,1.946,1.894c0.474,0.803,0.711,1.689,0.711,2.657
	c0,0.968-0.237,1.851-0.711,2.65c-0.474,0.799-1.125,1.427-1.953,1.886c-0.829,0.459-1.747,0.688-2.754,0.688h-4.177V85.75h4.206
	C204.157,85.75,205.068,85.979,205.892,86.438z M205.36,94.717c0.659-0.38,1.18-0.896,1.564-1.55
	c0.384-0.653,0.576-1.379,0.576-2.178c0-0.799-0.194-1.527-0.584-2.186s-0.916-1.178-1.579-1.557
	c-0.664-0.379-1.395-0.569-2.193-0.569h-3.159v8.608h3.203C203.978,95.286,204.702,95.096,205.36,94.717z"/>
<path fill="#FFFFFF" d="M211.573,85.75h1.033v10.464h-1.033V85.75z"/>
<path fill="#FFFFFF" d="M223.841,86.371c0.833,0.474,1.494,1.115,1.983,1.924c0.489,0.808,0.733,1.697,0.733,2.665
	c0,0.968-0.244,1.862-0.733,2.68c-0.489,0.818-1.15,1.467-1.983,1.946c-0.834,0.479-1.749,0.719-2.747,0.719
	c-0.998,0-1.914-0.239-2.747-0.719c-0.833-0.479-1.494-1.128-1.983-1.946s-0.733-1.712-0.733-2.68c0-0.968,0.244-1.856,0.733-2.665
	s1.15-1.449,1.983-1.924c0.834-0.474,1.749-0.711,2.747-0.711C222.092,85.66,223.008,85.897,223.841,86.371z M218.893,87.172
	c-0.679,0.389-1.218,0.918-1.617,1.587c-0.399,0.669-0.599,1.402-0.599,2.201c0,0.799,0.2,1.537,0.599,2.215
	c0.399,0.679,0.938,1.216,1.617,1.609c0.679,0.394,1.417,0.591,2.215,0.591c0.788,0,1.52-0.197,2.193-0.591
	c0.674-0.394,1.21-0.93,1.609-1.609c0.399-0.679,0.599-1.417,0.599-2.215c0-0.799-0.2-1.532-0.599-2.201
	c-0.399-0.669-0.936-1.198-1.609-1.587c-0.674-0.389-1.405-0.584-2.193-0.584C220.31,86.588,219.572,86.783,218.893,87.172z"/>
<g>
	<polygon fill="#FFFFFF" points="0.35,74.312 15.166,74.312 15.166,68.245 7.739,68.245 7.739,6.066 15.166,6.066 15.166,0 0.35,0 	
		"/>
	<polygon fill="#FFFFFF" points="211.892,0 211.892,6.066 219.242,6.066 219.242,68.245 211.892,68.245 211.892,74.312 
		226.63,74.312 226.63,0 	"/>
	<path fill="#FFFFFF" d="M49.312,36.68c2.66-0.8,4.688-2.214,6.082-4.242c1.395-2.027,2.092-4.552,2.092-7.574
		c0-2.531-0.484-4.843-1.453-6.935c-0.968-2.092-2.331-3.783-4.087-5.075c-1.369-1.007-3.029-1.73-4.978-2.17
		c-1.95-0.439-4.965-0.659-9.046-0.659H23.626v56.718h14.373c5.424,0,9.285-0.323,11.584-0.969c2.299-0.645,4.223-1.756,5.773-3.332
		c1.472-1.446,2.609-3.202,3.409-5.269c0.8-2.066,1.201-4.248,1.201-6.547c0-3.797-0.949-6.941-2.848-9.434
		C55.22,38.701,52.618,37.197,49.312,36.68z M32.653,17.696h3.526c4.674,0,7.851,0.627,9.53,1.879
		c1.679,1.253,2.518,3.429,2.518,6.528c0,2.841-0.91,4.862-2.731,6.063c-1.821,1.201-4.927,1.801-9.317,1.801h-3.526V17.696z
		 M49.506,54.268c-0.62,1.266-1.498,2.273-2.634,3.022c-0.93,0.646-2.195,1.098-3.797,1.356c-1.602,0.258-4.016,0.387-7.245,0.387
		h-3.177V40.941h3.177h2.789c1.86,0,3.351,0.103,4.475,0.31c1.124,0.207,2.124,0.53,3.003,0.969
		c1.395,0.749,2.466,1.795,3.216,3.138c0.749,1.343,1.123,2.919,1.123,4.727C50.435,51.609,50.126,53.003,49.506,54.268z"/>
	<polygon fill="#FFFFFF" points="76.975,10.025 67.755,10.025 67.755,66.743 97.586,66.743 97.586,58.491 76.975,58.491 	"/>
	<rect x="106.805" y="10.025" fill="#FFFFFF" width="9.221" height="56.718"/>
	<path fill="#FFFFFF" d="M148.064,33.89c-0.284-0.129-0.671-0.31-1.162-0.542c-6.406-2.944-9.608-6.121-9.608-9.531
		c0-2.169,0.729-3.9,2.189-5.191c1.459-1.291,3.428-1.937,5.908-1.937c1.756,0,3.313,0.413,4.669,1.24
		c1.356,0.827,2.602,2.131,3.738,3.913l7.206-3.719c-1.085-3.022-3.035-5.34-5.85-6.954c-2.815-1.614-6.315-2.422-10.499-2.422
		c-5.088,0-9.201,1.433-12.339,4.3c-3.138,2.867-4.707,6.612-4.707,11.235c0,3.564,1.039,6.58,3.119,9.046
		c2.079,2.467,6.243,5.224,12.494,8.271c0.414,0.181,1.008,0.465,1.783,0.852c5.526,2.609,8.29,5.579,8.29,8.911
		c0,2.557-0.807,4.597-2.421,6.121c-1.614,1.524-3.79,2.286-6.528,2.286c-2.892,0-5.268-0.665-7.128-1.995
		c-1.86-1.33-3.138-3.26-3.835-5.792l-7.361,3.409c0.955,4.133,2.976,7.309,6.063,9.531c3.086,2.221,7.045,3.332,11.875,3.332
		c5.759,0,10.331-1.582,13.714-4.746c3.384-3.164,5.075-7.432,5.075-12.804c0-3.693-1.046-6.773-3.138-9.24
		C157.517,38.998,153.669,36.473,148.064,33.89z"/>
	<path fill="#FFFFFF" d="M191.61,33.89c-0.284-0.129-0.672-0.31-1.162-0.542c-6.406-2.944-9.608-6.121-9.608-9.531
		c0-2.169,0.729-3.9,2.189-5.191c1.459-1.291,3.429-1.937,5.908-1.937c1.756,0,3.313,0.413,4.668,1.24
		c1.356,0.827,2.602,2.131,3.738,3.913l7.206-3.719c-1.085-3.022-3.035-5.34-5.85-6.954c-2.816-1.614-6.315-2.422-10.499-2.422
		c-5.088,0-9.201,1.433-12.339,4.3c-3.138,2.867-4.707,6.612-4.707,11.235c0,3.564,1.04,6.58,3.119,9.046
		c2.079,2.467,6.244,5.224,12.494,8.271c0.413,0.181,1.007,0.465,1.782,0.852c5.527,2.609,8.291,5.579,8.291,8.911
		c0,2.557-0.807,4.597-2.421,6.121c-1.614,1.524-3.791,2.286-6.528,2.286c-2.893,0-5.269-0.665-7.128-1.995
		c-1.86-1.33-3.138-3.26-3.835-5.792l-7.361,3.409c0.956,4.133,2.977,7.309,6.063,9.531c3.086,2.221,7.045,3.332,11.875,3.332
		c5.759,0,10.331-1.582,13.714-4.746c3.384-3.164,5.075-7.432,5.075-12.804c0-3.693-1.046-6.773-3.138-9.24
		C201.063,38.998,197.215,36.473,191.61,33.89z"/>
</g>
</svg>
