<?xml version="1.0" encoding="utf-8"?>
<!-- Generator: Adobe Illustrator 23.0.2, SVG Export Plug-In . SVG Version: 6.00 Build 0)  -->
<svg version="1.1" id="Layer_1" xmlns="http://www.w3.org/2000/svg" xmlns:xlink="http://www.w3.org/1999/xlink" x="0px" y="0px"
	 viewBox="0 0 226.28 74.312" enable-background="new 0 0 226.28 74.312" xml:space="preserve">
<g>
	<polygon fill="#FFFFFF" points="0,74.312 14.815,74.312 14.815,68.245 7.388,68.245 7.388,6.066 14.815,6.066 14.815,0 0,0 	"/>
	<polygon fill="#FFFFFF" points="211.542,0 211.542,6.066 218.891,6.066 218.891,68.245 211.542,68.245 211.542,74.312 
		226.28,74.312 226.28,0 	"/>
	<path fill="#FFFFFF" d="M48.962,36.68c2.66-0.8,4.688-2.214,6.082-4.242c1.395-2.027,2.092-4.552,2.092-7.574
		c0-2.531-0.484-4.843-1.453-6.935c-0.968-2.092-2.331-3.783-4.087-5.075c-1.369-1.007-3.029-1.73-4.978-2.17
		c-1.95-0.439-4.965-0.659-9.046-0.659H23.276v56.718h14.373c5.424,0,9.285-0.323,11.584-0.969c2.299-0.645,4.223-1.756,5.773-3.332
		c1.472-1.446,2.609-3.202,3.409-5.269c0.8-2.066,1.201-4.248,1.201-6.547c0-3.797-0.949-6.941-2.848-9.434
		C54.87,38.701,52.267,37.197,48.962,36.68z M32.303,17.696h3.526c4.674,0,7.851,0.627,9.53,1.879
		c1.679,1.253,2.518,3.429,2.518,6.528c0,2.841-0.91,4.862-2.731,6.063c-1.821,1.201-4.927,1.801-9.317,1.801h-3.526V17.696z
		 M49.155,54.268c-0.62,1.266-1.498,2.273-2.634,3.022c-0.93,0.646-2.195,1.098-3.797,1.356c-1.602,0.258-4.016,0.387-7.245,0.387
		h-3.177V40.941h3.177h2.789c1.86,0,3.351,0.103,4.475,0.31c1.124,0.207,2.124,0.53,3.003,0.969
		c1.395,0.749,2.466,1.795,3.216,3.138c0.749,1.343,1.123,2.919,1.123,4.727C50.085,51.609,49.775,53.003,49.155,54.268z"/>
	<polygon fill="#FFFFFF" points="76.625,10.025 67.404,10.025 67.404,66.743 97.235,66.743 97.235,58.491 76.625,58.491 	"/>
	<rect x="106.455" y="10.025" fill="#FFFFFF" width="9.221" height="56.718"/>
	<path fill="#FFFFFF" d="M147.714,33.89c-0.284-0.129-0.671-0.31-1.162-0.542c-6.406-2.944-9.608-6.121-9.608-9.531
		c0-2.169,0.729-3.9,2.189-5.191c1.459-1.291,3.428-1.937,5.908-1.937c1.756,0,3.313,0.413,4.669,1.24
		c1.356,0.827,2.602,2.131,3.738,3.913l7.206-3.719c-1.085-3.022-3.035-5.34-5.85-6.954c-2.815-1.614-6.315-2.422-10.499-2.422
		c-5.088,0-9.201,1.433-12.339,4.3c-3.138,2.867-4.707,6.612-4.707,11.235c0,3.564,1.039,6.58,3.119,9.046
		c2.079,2.467,6.243,5.224,12.494,8.271c0.414,0.181,1.008,0.465,1.783,0.852c5.526,2.609,8.29,5.579,8.29,8.911
		c0,2.557-0.807,4.597-2.421,6.121c-1.614,1.524-3.79,2.286-6.528,2.286c-2.892,0-5.268-0.665-7.128-1.995
		c-1.86-1.33-3.138-3.26-3.835-5.792l-7.361,3.409c0.955,4.133,2.976,7.309,6.063,9.531c3.086,2.221,7.045,3.332,11.875,3.332
		c5.759,0,10.331-1.582,13.714-4.746c3.384-3.164,5.075-7.432,5.075-12.804c0-3.693-1.046-6.773-3.138-9.24
		C157.167,38.998,153.319,36.473,147.714,33.89z"/>
	<path fill="#FFFFFF" d="M191.26,33.89c-0.284-0.129-0.672-0.31-1.162-0.542c-6.406-2.944-9.608-6.121-9.608-9.531
		c0-2.169,0.729-3.9,2.189-5.191c1.459-1.291,3.429-1.937,5.908-1.937c1.756,0,3.313,0.413,4.668,1.24
		c1.356,0.827,2.602,2.131,3.738,3.913l7.206-3.719c-1.085-3.022-3.035-5.34-5.85-6.954c-2.816-1.614-6.315-2.422-10.499-2.422
		c-5.088,0-9.201,1.433-12.339,4.3c-3.138,2.867-4.707,6.612-4.707,11.235c0,3.564,1.04,6.58,3.119,9.046
		c2.079,2.467,6.244,5.224,12.494,8.271c0.413,0.181,1.007,0.465,1.782,0.852c5.527,2.609,8.291,5.579,8.291,8.911
		c0,2.557-0.807,4.597-2.421,6.121c-1.614,1.524-3.791,2.286-6.528,2.286c-2.893,0-5.269-0.665-7.128-1.995
		c-1.86-1.33-3.138-3.26-3.835-5.792l-7.361,3.409c0.956,4.133,2.977,7.309,6.063,9.531c3.086,2.221,7.045,3.332,11.875,3.332
		c5.759,0,10.331-1.582,13.714-4.746c3.384-3.164,5.075-7.432,5.075-12.804c0-3.693-1.046-6.773-3.138-9.24
		C200.713,38.998,196.864,36.473,191.26,33.89z"/>
</g>
</svg>
