<?xml version="1.0" encoding="utf-8"?>
<!-- Generator: Adobe Illustrator 16.0.0, SVG Export Plug-In . SVG Version: 6.00 Build 0)  -->
<!DOCTYPE svg PUBLIC "-//W3C//DTD SVG 1.1//EN" "http://www.w3.org/Graphics/SVG/1.1/DTD/svg11.dtd">
<svg version="1.1" id="Layer_1" xmlns="http://www.w3.org/2000/svg" xmlns:xlink="http://www.w3.org/1999/xlink" x="0px" y="0px"
	 width="438px" height="149.625px" viewBox="-67 0 438 149.625" enable-background="new -67 0 438 149.625" xml:space="preserve">
<path fill="#725F46" d="M71.167,65.726c51.024-22,111.937-15.512,166.688-3.75c8.869,1.87,125.805,40.541,120.353,57.412
	c-1.67,5.175-43.232-6.817-49.034-9.037c-48.204-18.446-98.126-26.084-146.596-29.114c-22.521-0.736-44.789,0.296-66.586,5.175
	C87.32,88.811,62.896,89.181,71.167,65.726z"/>
<path fill="#725F46" d="M122.419,140.893C97.102,139.781,44.254,99.365,16.77,90.564C7.091,74.559,18.307,62.751,37.522,48.65
	c19.577-14.366,41.72-26.44,64.032-37.572c9.288-4.633,34.949,1.273,16.949,9.782C89.589,34.528,46.274,52.602,30.614,78.537
	C43.408,82.86,151.492,142.17,122.419,140.893z"/>
<g>
	<path fill="#725F46" d="M-20.184,7.121c0,0,0.708,1.974,1.856,5.45c0.565,1.741,1.279,3.847,2.03,6.28
		c0.382,1.215,0.788,2.508,1.216,3.871c0.211,0.682,0.427,1.382,0.648,2.098c0.191,0.746,0.386,1.508,0.586,2.287
		c0.792,3.119,1.684,6.496,2.532,10.095c0.432,1.798,0.875,3.646,1.328,5.534c0.386,1.88,0.767,3.804,1.137,5.764
		c0.748,3.918,1.537,7.972,2.227,12.103c0.6,4.139,1.196,8.347,1.76,12.561l0.425,3.159c0.106,1.053,0.211,2.105,0.317,3.155
		c0.204,2.101,0.407,4.193,0.609,6.27c0.189,2.077,0.376,4.138,0.561,6.174c0.162,2.036,0.267,4.041,0.39,6.018
		c0.228,3.95,0.428,7.773,0.561,11.394c0.052,1.806,0.103,3.562,0.152,5.26c0.026,1.699,0.052,3.341,0.076,4.918
		c0.023,1.575,0.045,3.086,0.067,4.522c-0.008,1.432-0.016,2.79-0.023,4.066c-0.005,2.552-0.054,4.777-0.093,6.609
		c-0.076,3.666-0.182,5.763-0.182,5.763l-15.989,0.762c0,0-0.311-2.068-0.744-5.692c-0.219-1.812-0.484-4.012-0.739-6.537
		c-0.261-2.518-0.555-5.358-0.876-8.458c-0.154-1.546-0.315-3.157-0.481-4.824c-0.144-1.668-0.292-3.393-0.445-5.165
		c-0.177-1.764-0.359-3.575-0.546-5.427c-0.169-1.852-0.343-3.743-0.519-5.666c-0.178-1.922-0.311-3.886-0.514-5.856
		c-0.2-1.97-0.402-3.963-0.606-5.972c-0.436-4.011-0.687-8.123-1.213-12.174c-0.476-4.062-0.919-8.129-1.342-12.136
		c-0.522-3.988-1.036-7.913-1.534-11.711c-0.25-1.9-0.478-3.772-0.689-5.607c-0.281-1.803-0.555-3.566-0.823-5.283
		c-0.558-3.43-0.994-6.697-1.43-9.713c-0.107-0.754-0.212-1.493-0.315-2.215c-0.132-0.738-0.26-1.459-0.386-2.162
		c-0.245-1.408-0.476-2.743-0.694-3.998c-0.448-2.506-0.78-4.705-1.077-6.511c-0.573-3.616-0.85-5.695-0.85-5.695L-20.184,7.121z"/>
</g>
</svg>
