<?xml version="1.0" encoding="utf-8"?>
<!-- Generator: Adobe Illustrator 16.0.0, SVG Export Plug-In . SVG Version: 6.00 Build 0)  -->
<!DOCTYPE svg PUBLIC "-//W3C//DTD SVG 1.1//EN" "http://www.w3.org/Graphics/SVG/1.1/DTD/svg11.dtd">
<svg version="1.1" id="Layer_1" xmlns="http://www.w3.org/2000/svg" xmlns:xlink="http://www.w3.org/1999/xlink" x="0px" y="0px"
	 width="371px" height="149.626px" viewBox="0 0 371 149.626" enable-background="new 0 0 371 149.626" xml:space="preserve">
<path fill="#725f46" d="M67.932,65.541c50.367-29.015,112.229-25.14,168.146-14.683c9.057,1.652,129.202,39.919,124.589,60.093
	c-1.413,6.188-44.022-5.352-50-7.604c-49.66-18.722-100.484-24.625-149.595-25.201c-22.785,0.523-45.219,3.108-66.975,10.188
	C85.468,91.691,60.82,93.632,67.932,65.541z"/>
<path fill="#725f46" d="M116.771,149.626c-23.398,0-73.783-41.717-99.492-50.034c-9.577-17.06,0.291-30.529,17.444-46.896
	c17.476-16.674,37.412-30.96,57.541-44.223c8.38-5.521,32.29-0.287,16.032,9.896C82.178,34.727,42.956,56.603,29.561,85.756
	C41.538,89.875,143.64,149.626,116.771,149.626z"/>
</svg>
