<?xml version="1.0" encoding="utf-8"?>
<!-- Generator: Adobe Illustrator 16.0.0, SVG Export Plug-In . SVG Version: 6.00 Build 0)  -->
<!DOCTYPE svg PUBLIC "-//W3C//DTD SVG 1.1//EN" "http://www.w3.org/Graphics/SVG/1.1/DTD/svg11.dtd">
<svg version="1.1" id="Layer_1" xmlns="http://www.w3.org/2000/svg" xmlns:xlink="http://www.w3.org/1999/xlink" x="0px" y="0px"
	 width="71.333px" height="155px" viewBox="0 0 71.333 155" enable-background="new 0 0 71.333 155" xml:space="preserve">
<polygon stroke="#FFFFFF" stroke-width="3.2683" stroke-linecap="round" stroke-linejoin="round" stroke-miterlimit="10" points="
	59.11,82.752 11.783,74.351 22.5,151.495 "/>
<g id="XMLID_1_">
	<path fill="#FFFFFF" d="M15.336,75.984c-0.303-0.054-0.563-0.247-0.704-0.52c-0.142-0.272-0.148-0.597-0.017-0.874L47.631,4.455
		c0.191-0.403,0.627-0.63,1.067-0.552s0.771,0.44,0.812,0.886l6.861,77.213c0.027,0.307-0.09,0.607-0.316,0.815
		s-0.537,0.299-0.84,0.245L15.336,75.984z"/>
	<path fill="none" stroke="#000000" stroke-width="4" stroke-miterlimit="10" d="M15.336,75.984
		c-0.303-0.054-0.563-0.247-0.704-0.52c-0.142-0.272-0.148-0.597-0.017-0.874L47.631,4.455c0.191-0.403,0.627-0.63,1.067-0.552
		s0.771,0.44,0.812,0.886l6.861,77.213c0.027,0.307-0.09,0.607-0.316,0.815s-0.537,0.299-0.84,0.245L15.336,75.984z"/>
	<path display="none" fill="#1A1A1A" d="M48.525,4.876l6.859,77.214l-39.875-7.078L48.525,4.876 M48.87,2.93
		c-0.88-0.155-1.753,0.297-2.133,1.104L13.721,74.171c-0.262,0.556-0.25,1.203,0.033,1.749s0.804,0.929,1.409,1.036l39.877,7.078
		c0.605,0.107,1.227-0.072,1.68-0.488c0.453-0.415,0.688-1.019,0.633-1.63L50.492,4.701C50.414,3.812,49.749,3.086,48.87,2.93
		L48.87,2.93z"/>
</g>
</svg>
