<?xml version="1.0" encoding="utf-8"?>
<!-- Generator: Adobe Illustrator 16.0.0, SVG Export Plug-In . SVG Version: 6.00 Build 0)  -->
<!DOCTYPE svg PUBLIC "-//W3C//DTD SVG 1.1//EN" "http://www.w3.org/Graphics/SVG/1.1/DTD/svg11.dtd">
<svg version="1.1" id="Layer_1" xmlns="http://www.w3.org/2000/svg" xmlns:xlink="http://www.w3.org/1999/xlink" x="0px" y="0px"
	 width="300px" height="5.75px" viewBox="0 0 300 5.75" enable-background="new 0 0 300 5.75" xml:space="preserve">
<path fill="none" stroke="#000000" stroke-linecap="round" stroke-miterlimit="10" d="M1.667,3C4.5,3.667,21.833,3.714,23,3.88
	S46.667,3.333,49.333,3s23.208,0.763,25,0.923S82,3.221,91.667,2.944s28.667,1.513,31.708,1.202"/>
<path fill="none" stroke="#000000" stroke-linecap="round" stroke-miterlimit="10" d="M130.128,4.142
	c1.331,0.076,2.731-0.902,4.221-0.687"/>
<path fill="none" stroke="#000000" stroke-linecap="round" stroke-miterlimit="10" d="M138.881,3.745
	c2.527-0.333,10.052-0.463,12.655-0.041"/>
<path fill="none" stroke="#000000" stroke-width="0.7656" stroke-linecap="round" stroke-miterlimit="10" d="M156.75,2.607
	c7,0.806,23,1.3,23.75,1.236s18.5-2.335,32.25-2.116s37.375,2.271,39,2.784c1.375-0.22,27-1.905,37.125-1.905"/>
</svg>
